<?xml version="1.0" encoding="UTF-8"?>
<svg version="1.1" xmlns="http://www.w3.org/2000/svg" width="440" height="440">
<path d="M0 0 C21.12 0 42.24 0 64 0 C64 22.77 64 45.54 64 69 C66.97 69.99 69.94 70.98 73 72 C75.67152704 73.20244857 78.27152041 74.41995444 80.875 75.75 C81.56480957 76.09998047 82.25461914 76.44996094 82.96533203 76.81054688 C96.87852699 83.97608524 108.57954968 93.37106604 120 104 C121.01707031 104.93585938 121.01707031 104.93585938 122.0546875 105.890625 C147.72224641 130.42427568 164.76449742 168.2320878 166.14260101 203.66663456 C166.15077095 204.92592998 166.15894089 206.18522539 166.1673584 207.48268127 C166.17315178 208.19103227 166.17894517 208.89938327 166.18491411 209.62919945 C166.20280627 211.97878615 166.2137951 214.32834937 166.22460938 216.67797852 C166.23579845 218.37221484 166.24731219 220.06644906 166.25912476 221.76068115 C166.29549501 227.30005881 166.32086331 232.83945828 166.34375 238.37890625 C166.34769587 239.32295153 166.35164173 240.26699682 166.35570717 241.23964953 C166.3920908 250.14760145 166.42351369 259.05556157 166.44481659 267.96356297 C166.47243107 279.33943755 166.52332377 290.71469161 166.60529089 302.09030777 C166.66105867 310.10154631 166.69004811 318.11261617 166.6992898 326.12404197 C166.70554585 330.90484797 166.72365769 335.68492354 166.77067566 340.46551704 C166.81433793 344.95971059 166.82483231 349.45277396 166.81004715 353.94714355 C166.81037576 355.59390447 166.82264937 357.24071402 166.84789658 358.88728142 C167.0508784 372.8649933 167.0508784 372.8649933 162.77893066 377.47767639 C159.84490607 379.74474027 157.49950917 380.88108765 153.7265625 380.90576172 C152.74864746 380.92782684 151.77073242 380.94989197 150.76318359 380.97262573 C149.72758301 380.95845612 148.69198242 380.9442865 147.625 380.9296875 C146.5417041 380.93638458 145.4584082 380.94308167 144.34228516 380.94998169 C142.05954124 380.95472987 139.77670116 380.94191909 137.49414062 380.91259766 C134.00954982 380.87510276 130.5312706 380.91227123 127.046875 380.95703125 C124.8229028 380.95240532 122.59893451 380.94343617 120.375 380.9296875 C119.33939941 380.94385712 118.30379883 380.95802673 117.23681641 380.97262573 C116.25890137 380.95056061 115.28098633 380.92849548 114.2734375 380.90576172 C113.42185059 380.90019257 112.57026367 380.89462341 111.69287109 380.8888855 C107.16524044 379.39436716 104.40692836 377.14095036 102 373 C100.97763293 367.92703567 101.07562413 362.91857187 101.14526367 357.77172852 C101.1406452 356.22030972 101.13292336 354.66889754 101.12234497 353.11750793 C101.10218129 348.91407992 101.12461039 344.7118241 101.15417647 340.50849271 C101.17733588 336.09300309 101.15922801 331.67769155 101.14509583 327.26219177 C101.12417213 318.88774772 101.13706334 310.51373644 101.16356784 302.13932127 C101.20961168 287.18156788 101.19377909 272.22378428 101.1725176 257.2659964 C101.1663393 252.02765849 101.17322946 246.78955313 101.19173563 241.55124581 C101.2018443 238.26946089 101.20397097 234.98769916 101.20456314 231.70590019 C101.20664454 230.20163946 101.21213136 228.69737826 101.2215786 227.19314575 C101.30198641 214.0047985 100.84740239 200.41733588 96.375 187.875 C96.11485107 187.12839111 95.85470215 186.38178223 95.58666992 185.61254883 C90.18020343 170.7562573 81.23514775 157.64208434 68.80615234 147.80419922 C67.9060141 147.08996796 67.00587585 146.37573669 66.07846069 145.63986206 C65.39256866 145.09870758 64.70667664 144.5575531 64 144 C64.00645255 145.17375215 64.0129051 146.34750429 64.01955318 147.55682468 C64.17118887 175.42521269 64.28659875 203.29356854 64.35745731 231.16228259 C64.36621215 234.59313378 64.37527242 238.0239841 64.38452148 241.45483398 C64.38635766 242.13784859 64.38819383 242.8208632 64.39008565 243.52457523 C64.42053716 254.58097519 64.47572466 265.63712013 64.54006957 276.69336886 C64.60555239 288.03985318 64.6438921 299.38614858 64.65861946 310.7328338 C64.66775047 317.10548477 64.68923043 323.47755751 64.7401104 329.85002327 C64.78760987 335.84766953 64.80228329 341.84449919 64.79175377 347.84231567 C64.79368014 350.04378636 64.80761274 352.24528424 64.83443832 354.44659233 C64.8692856 357.45356194 64.86089198 360.4574515 64.84178162 363.4644928 C64.86217151 364.33513007 64.8825614 365.20576734 64.90356916 366.10278755 C64.81986751 370.97711735 64.05307056 373.48591306 60.61569309 377.04041386 C57.72031693 379.66315865 55.73880709 380.8795227 51.7265625 380.90576172 C50.74864746 380.92782684 49.77073242 380.94989197 48.76318359 380.97262573 C47.20978271 380.95137131 47.20978271 380.95137131 45.625 380.9296875 C44.5417041 380.93638458 43.4584082 380.94308167 42.34228516 380.94998169 C40.05954124 380.95472987 37.77670116 380.94191909 35.49414062 380.91259766 C32.00954982 380.87510276 28.5312706 380.91227123 25.046875 380.95703125 C22.8229028 380.95240532 20.59893451 380.94343617 18.375 380.9296875 C16.82159912 380.95094193 16.82159912 380.95094193 15.23681641 380.97262573 C14.25890137 380.95056061 13.28098633 380.92849548 12.2734375 380.90576172 C11.42185059 380.90019257 10.57026367 380.89462341 9.69287109 380.8888855 C5.19090003 379.4028371 2.42527096 377.08899347 0 373 C-1.01987995 368.191356 -0.94525303 363.41985926 -0.88647461 358.52758789 C-0.89437048 357.05857465 -0.90533638 355.58957519 -0.91912842 354.12060547 C-0.94778203 350.14761189 -0.93365712 346.17580048 -0.91168666 342.20280766 C-0.89602536 338.04538728 -0.91993193 333.88819608 -0.93959045 329.7308197 C-0.97079866 321.86503001 -0.96656787 313.99967704 -0.94951588 306.13386005 C-0.93182884 297.17610061 -0.95378417 288.21857444 -0.97902286 279.26084912 C-1.03003717 260.84047956 -1.03141986 242.42040415 -1 224 C-2.1510033 224.77145711 -3.29548447 225.55265171 -4.43708801 226.33795166 C-5.07509748 226.77193394 -5.71310694 227.20591621 -6.37045002 227.65304947 C-8.22977077 228.96685649 -8.22977077 228.96685649 -9.0065918 231.59277344 C-9.07015869 232.50575195 -9.13372559 233.41873047 -9.19921875 234.359375 C-9.33710815 235.89670288 -9.33710815 235.89670288 -9.4777832 237.46508789 C-9.54698975 238.54910889 -9.61619629 239.63312988 -9.6875 240.75 C-9.89663786 243.01498094 -10.11280698 245.27932345 -10.3359375 247.54296875 C-10.44131836 248.64817871 -10.54669922 249.75338867 -10.65527344 250.89208984 C-13.81632482 279.39080378 -28.55268929 307.04404194 -47.92578125 327.76953125 C-49.82480087 329.81160319 -51.59837655 331.91451582 -53.375 334.0625 C-57.70678026 339.02308707 -62.80386508 342.98448349 -68 347 C-68.85464844 347.6703125 -69.70929688 348.340625 -70.58984375 349.03125 C-80.2658665 356.36465671 -98.29833832 370 -111 370 C-111 393.1 -111 416.2 -111 440 C-131.79 440 -152.58 440 -174 440 C-174.13558106 393.34853649 -174.24302669 346.69712017 -174.30639198 300.04549878 C-174.3138964 294.54042334 -174.32166232 289.03534829 -174.32958984 283.53027344 C-174.33116371 282.43429168 -174.33273757 281.33830992 -174.33435912 280.20911659 C-174.36048163 262.45279329 -174.40779715 244.6965863 -174.46291678 226.94033204 C-174.51898531 208.72677045 -174.5523441 190.51326987 -174.56453097 172.29962552 C-174.57277214 161.05676438 -174.59881997 149.81423197 -174.6474988 138.571472 C-174.67916446 130.86650961 -174.68881195 123.16171766 -174.68100826 115.45669489 C-174.67715736 111.00824062 -174.68314483 106.56036157 -174.71523285 102.11200905 C-174.74438888 98.04045832 -174.74593455 93.96987065 -174.72539337 89.89827599 C-174.72285399 88.42440458 -174.73050313 86.95047358 -174.74929909 85.47671984 C-174.89816486 73.08521309 -174.89816486 73.08521309 -171.09436989 69.12965584 C-166.911532 66.25087746 -166.911532 66.25087746 -163.671875 66.30859375 C-162.48634033 66.31379028 -162.48634033 66.31379028 -161.27685547 66.3190918 C-160.44299316 66.3581665 -159.60913086 66.39724121 -158.75 66.4375 C-157.87102051 66.46046143 -156.99204102 66.48342285 -156.08642578 66.50708008 C-118.29656134 67.92869556 -84.19777023 84.23591068 -57 110 C-56.05511719 110.88042969 -55.11023438 111.76085937 -54.13671875 112.66796875 C-25.56081961 139.84354614 -12.6329986 175.57336455 -8 214 C-6.15274948 214.69159401 -6.15274948 214.69159401 -4 215 C-3.01 214.34 -2.02 213.68 -1 213 C-0.6934839 210.15392547 -0.58448543 207.5230503 -0.60127258 204.67318726 C-0.59462576 203.80168175 -0.58797893 202.93017625 -0.58113068 202.03226149 C-0.56239075 199.09479587 -0.56511332 196.15773364 -0.56762695 193.22021484 C-0.5586165 191.12141845 -0.54829106 189.02262735 -0.53674316 186.92384338 C-0.50906289 181.21132036 -0.49987372 175.49889687 -0.49388909 169.78631544 C-0.48453402 163.82182811 -0.45833308 157.85741597 -0.43388367 151.89297485 C-0.39013582 140.59182113 -0.3616398 129.29068193 -0.33856028 117.98946917 C-0.31155293 105.12626289 -0.26763875 92.26313195 -0.22227156 79.39997935 C-0.12930661 52.93334937 -0.05991242 26.46672686 0 0 Z M-111 150 C-111 198.18 -111 246.36 -111 296 C-100.96664861 290.9833243 -94.2271266 282.08272608 -88 273 C-87.44441406 272.19949219 -86.88882813 271.39898437 -86.31640625 270.57421875 C-79.92450097 260.69581967 -75.53004712 248.66412545 -74 237 C-73.89042969 236.17113281 -73.78085938 235.34226562 -73.66796875 234.48828125 C-71.03452361 211.55975221 -76.30409739 187.71700904 -90.40136719 169.15478516 C-95.82968256 162.31893204 -101.73796412 154.95308088 -109 150 C-109.66 150 -110.32 150 -111 150 Z " fill="#F49E0B" transform="translate(225,0)"/>
<path d="M0 0 C1.18553467 0.00519653 1.18553467 0.00519653 2.39501953 0.01049805 C3.22888184 0.04957275 4.06274414 0.08864746 4.921875 0.12890625 C5.80085449 0.15186768 6.67983398 0.1748291 7.58544922 0.19848633 C45.37531366 1.62010181 79.47410477 17.92731693 106.671875 43.69140625 C107.61675781 44.57183594 108.56164062 45.45226562 109.53515625 46.359375 C137.30105575 72.76464565 153.10444383 109.58661391 154.671875 147.69140625 C146.04026707 143.18378878 146.04026707 143.18378878 142.296875 139.94140625 C139.81836337 137.53062633 139.81836337 137.53062633 136.671875 136.69140625 C136.135625 136.13453125 135.599375 135.57765625 135.046875 135.00390625 C130.53684748 130.61256366 126.05579494 127.03196624 119.734375 126.12890625 C118.72375 126.31453125 117.713125 126.50015625 116.671875 126.69140625 C114.48215754 129.97598244 114.42603598 130.90900435 114.44482422 134.71362305 C114.44497528 135.7344548 114.44512634 136.75528656 114.44528198 137.80705261 C114.45560455 138.9071315 114.46592712 140.00721039 114.4765625 141.140625 C114.48080734 142.83225517 114.48080734 142.83225517 114.48513794 144.55805969 C114.49634584 148.16511583 114.52145177 151.77192498 114.546875 155.37890625 C114.556904 157.82226204 114.56602999 160.26562172 114.57421875 162.70898438 C114.59628717 168.70320948 114.62977083 174.69729022 114.671875 180.69140625 C116.27227939 180.72909548 117.87294044 180.7559904 119.47363281 180.77832031 C120.81062225 180.80252045 120.81062225 180.80252045 122.17462158 180.82720947 C125.62967286 180.63932021 127.64112353 179.44691792 130.421875 177.44140625 C131.33324219 176.80589844 132.24460938 176.17039063 133.18359375 175.515625 C134.00472656 174.91363281 134.82585937 174.31164062 135.671875 173.69140625 C141.44709114 169.69140625 141.44709114 169.69140625 143.671875 169.69140625 C143.671875 169.03140625 143.671875 168.37140625 143.671875 167.69140625 C147.301875 165.71140625 150.931875 163.73140625 154.671875 161.69140625 C155.35489244 198.65631005 140.93617651 234.51238474 115.74609375 261.4609375 C113.84707413 263.50300944 112.07349845 265.60592207 110.296875 267.75390625 C105.96509474 272.71449332 100.86800992 276.67588974 95.671875 280.69140625 C94.81722656 281.36171875 93.96257812 282.03203125 93.08203125 282.72265625 C83.4060085 290.05606296 65.37353668 303.69140625 52.671875 303.69140625 C52.671875 326.79140625 52.671875 349.89140625 52.671875 373.69140625 C31.881875 373.69140625 11.091875 373.69140625 -10.328125 373.69140625 C-10.46370606 327.03994274 -10.57115169 280.38852642 -10.63451698 233.73690503 C-10.6420214 228.23182959 -10.64978732 222.72675454 -10.65771484 217.22167969 C-10.65928871 216.12569793 -10.66086257 215.02971617 -10.66248412 213.90052284 C-10.68860663 196.14419954 -10.73592215 178.38799255 -10.79104178 160.63173829 C-10.84711031 142.4181767 -10.8804691 124.20467612 -10.89265597 105.99103177 C-10.90089714 94.74817063 -10.92694497 83.50563822 -10.9756238 72.26287825 C-11.00728946 64.55791586 -11.01693695 56.85312391 -11.00913326 49.14810114 C-11.00528236 44.69964687 -11.01126983 40.25176782 -11.04335785 35.8034153 C-11.07251388 31.73186457 -11.07405955 27.6612769 -11.05351837 23.58968224 C-11.05097899 22.11581083 -11.05862813 20.64187983 -11.07742409 19.16812609 C-11.22628986 6.77661934 -11.22628986 6.77661934 -7.42249489 2.82106209 C-3.239657 -0.05771629 -3.239657 -0.05771629 0 0 Z M52.671875 83.69140625 C52.671875 131.87140625 52.671875 180.05140625 52.671875 229.69140625 C62.70522639 224.67473055 69.4447484 215.77413233 75.671875 206.69140625 C76.22746094 205.89089844 76.78304687 205.09039062 77.35546875 204.265625 C83.74737403 194.38722592 88.14182788 182.3555317 89.671875 170.69140625 C89.78144531 169.86253906 89.89101562 169.03367187 90.00390625 168.1796875 C92.63735139 145.25115846 87.36777761 121.40841529 73.27050781 102.84619141 C67.84219244 96.01033829 61.93391088 88.64448713 54.671875 83.69140625 C54.011875 83.69140625 53.351875 83.69140625 52.671875 83.69140625 Z " fill="#F49E0B" transform="translate(61.328125,66.30859375)"/>
<path d="M0 0 C4.57303745 0.63898542 7.05531208 2.18243331 10.68359375 4.8984375 C11.27205078 5.3109375 11.86050781 5.7234375 12.46679688 6.1484375 C13.94103188 7.21002368 15.35030783 8.36063238 16.74609375 9.5234375 C16.74609375 10.1834375 16.74609375 10.8434375 16.74609375 11.5234375 C17.27460938 11.59691406 17.803125 11.67039063 18.34765625 11.74609375 C22.32069415 13.03377216 25.46574545 15.73683064 28.79296875 18.19726562 C32.32021285 20.7350598 35.45613631 22.67826925 39.74609375 23.5234375 C42.18434565 22.76742121 42.18434565 22.76742121 44.37109375 21.1484375 C45.23476562 20.57996094 46.0984375 20.01148438 46.98828125 19.42578125 C47.89835937 18.79800781 48.8084375 18.17023438 49.74609375 17.5234375 C51.66241488 16.25208318 53.57909446 14.98126903 55.49609375 13.7109375 C58.8006402 11.50932601 62.08612345 9.28740696 65.33984375 7.01171875 C66.55823947 6.18177132 67.77698299 5.35233424 68.99609375 4.5234375 C69.55006836 4.12535889 70.10404297 3.72728027 70.67480469 3.31713867 C75.2694326 0.23569121 78.40258184 -0.01767763 83.74609375 0.5234375 C86.27224225 3.049586 85.99867078 3.90419363 86.00488281 7.40039062 C86.01118713 8.41484253 86.01749146 9.42929443 86.02398682 10.4744873 C86.01993835 11.57345337 86.01588989 12.67241943 86.01171875 13.8046875 C86.0136322 14.92911255 86.01554565 16.0535376 86.01751709 17.21203613 C86.01887992 19.59269433 86.01517669 21.97335993 86.00683594 24.35400391 C85.99613804 28.00830703 86.00672819 31.66211851 86.01953125 35.31640625 C86.01820967 37.62500109 86.01564732 39.93359562 86.01171875 42.2421875 C86.01576721 43.34115356 86.01981567 44.44011963 86.02398682 45.5723877 C86.01453033 47.09406555 86.01453033 47.09406555 86.00488281 48.64648438 C86.00329163 49.54202026 86.00170044 50.43755615 86.00006104 51.36022949 C85.74609375 53.5234375 85.74609375 53.5234375 83.74609375 55.5234375 C79.73902054 56.35824442 77.74968772 56.07155132 74.1328125 54.09619141 C71.10764164 52.0864806 68.17167234 49.98797962 65.24609375 47.8359375 C63.73595703 46.7540918 63.73595703 46.7540918 62.1953125 45.65039062 C58.65125279 43.10730715 55.12850207 40.53591892 51.609375 37.95849609 C47.44155929 34.74180751 47.44155929 34.74180751 42.74609375 32.5234375 C40.83177008 33.19604766 40.83177008 33.19604766 39.05859375 34.5859375 C36.0535331 36.63817404 33.04727202 38.55605016 29.87109375 40.3359375 C28.76121094 40.96435547 28.76121094 40.96435547 27.62890625 41.60546875 C25.74609375 42.5234375 25.74609375 42.5234375 23.74609375 42.5234375 C23.74609375 43.1834375 23.74609375 43.8434375 23.74609375 44.5234375 C21.54490714 46.09316057 19.35389478 47.54156553 17.05859375 48.9609375 C16.43275391 49.35603516 15.80691406 49.75113281 15.16210938 50.15820312 C13.93021754 50.93345652 12.69458178 51.70279606 11.45507812 52.46582031 C9.97189738 53.38369731 8.50752043 54.33182616 7.046875 55.28515625 C3.36135479 57.26870448 0.88967171 56.92442892 -3.25390625 56.5234375 C-5.48634416 54.93156686 -6.16303397 54.04681392 -6.63485718 51.32936096 C-6.63724396 50.47760788 -6.63963074 49.6258548 -6.64208984 48.74829102 C-6.65154633 47.78041153 -6.66100281 46.81253204 -6.67074585 45.81532288 C-6.66467316 44.77153976 -6.65860046 43.72775665 -6.65234375 42.65234375 C-6.65521393 41.57846909 -6.65808411 40.50459442 -6.66104126 39.3981781 C-6.66308367 37.12604241 -6.65754154 34.85388921 -6.64501953 32.58178711 C-6.62898468 29.10295248 -6.64485487 25.6252825 -6.6640625 22.14648438 C-6.66207979 19.9401016 -6.65823555 17.73371955 -6.65234375 15.52734375 C-6.65841644 14.48558487 -6.66448914 13.44382599 -6.67074585 12.37049866 C-6.66128937 11.39946701 -6.65183289 10.42843536 -6.64208984 9.42797852 C-6.63970306 8.57542984 -6.63731628 7.72288116 -6.63485718 6.84449768 C-5.9165973 2.46827945 -4.34742589 0.69934582 0 0 Z " fill="#16B77D" transform="translate(181.25390625,191.4765625)"/>
<path d="M0 0 C4.29783195 0.56039029 6.591034 1.79792338 10.15234375 4.234375 C11.72822266 5.27851563 11.72822266 5.27851563 13.3359375 6.34375 C14.12097656 7.05015625 14.90601563 7.7565625 15.71484375 8.484375 C15.71484375 9.804375 15.71484375 11.124375 15.71484375 12.484375 C11.72472004 11.92448197 9.18933855 10.72767732 5.90234375 8.421875 C5.11214844 7.87402344 4.32195312 7.32617188 3.5078125 6.76171875 C2.91613281 6.34019531 2.32445312 5.91867188 1.71484375 5.484375 C1.71484375 6.144375 1.71484375 6.804375 1.71484375 7.484375 C2.45734375 7.731875 3.19984375 7.979375 3.96484375 8.234375 C8.1338409 10.1293737 10.1431286 12.31608753 12.15234375 16.421875 C13.59754769 19.64344773 13.59754769 19.64344773 16.40234375 22.171875 C18.71484375 24.484375 18.71484375 24.484375 18.71484375 27.484375 C21.35484375 27.814375 23.99484375 28.144375 26.71484375 28.484375 C26.71484375 28.814375 26.71484375 29.144375 26.71484375 29.484375 C23.74484375 29.484375 20.77484375 29.484375 17.71484375 29.484375 C17.77671875 30.185625 17.83859375 30.886875 17.90234375 31.609375 C17.64722919 35.52113163 16.99520942 37.22670976 14.71484375 40.484375 C11.89448777 42.51020592 9.00921122 44.30752874 6.015625 46.06640625 C5.25636719 46.53433594 4.49710938 47.00226563 3.71484375 47.484375 C3.71484375 47.814375 3.71484375 48.144375 3.71484375 48.484375 C4.3903125 47.9790625 5.06578125 47.47375 5.76171875 46.953125 C7.09976563 45.97859375 7.09976563 45.97859375 8.46484375 44.984375 C9.78742188 44.00984375 9.78742188 44.00984375 11.13671875 43.015625 C14.17459191 41.21131246 16.26171428 41.484375 19.71484375 41.484375 C20.11328125 43.6875 20.11328125 43.6875 19.71484375 46.484375 C17.59195458 48.33816554 15.69869468 49.75636081 13.33984375 51.234375 C12.7365625 51.63269531 12.13328125 52.03101563 11.51171875 52.44140625 C6.54119178 55.69986282 2.78113957 57.49342223 -3.28515625 56.484375 C-5.41806223 54.85429783 -6.2017201 53.96492325 -6.66610718 51.29029846 C-6.66849396 50.43854538 -6.67088074 49.5867923 -6.67333984 48.70922852 C-6.68279633 47.74134903 -6.69225281 46.77346954 -6.70199585 45.77626038 C-6.69592316 44.73247726 -6.68985046 43.68869415 -6.68359375 42.61328125 C-6.68646393 41.53940659 -6.68933411 40.46553192 -6.69229126 39.3591156 C-6.69433367 37.08697991 -6.68879154 34.81482671 -6.67626953 32.54272461 C-6.66023468 29.06388998 -6.67610487 25.58622 -6.6953125 22.10742188 C-6.69332979 19.9010391 -6.68948555 17.69465705 -6.68359375 15.48828125 C-6.68966644 14.44652237 -6.69573914 13.40476349 -6.70199585 12.33143616 C-6.69253937 11.36040451 -6.68308289 10.38937286 -6.67333984 9.38891602 C-6.67095306 8.53636734 -6.66856628 7.68381866 -6.66610718 6.80543518 C-5.94384905 2.40485635 -4.38242649 0.64616039 0 0 Z " fill="#16B77D" transform="translate(181.28515625,191.515625)"/>
<path d="M0 0 C0.33 15.51 0.66 31.02 1 47 C-4.63353426 44.7465863 -4.63353426 44.7465863 -7.4453125 42.94140625 C-8.04730469 42.55533203 -8.64929688 42.16925781 -9.26953125 41.77148438 C-10.18798828 41.17303711 -10.18798828 41.17303711 -11.125 40.5625 C-11.74503906 40.16740234 -12.36507812 39.77230469 -13.00390625 39.36523438 C-15.94234183 37.46630988 -18.67725736 35.63639767 -21 33 C-20.34 33 -19.68 33 -19 33 C-18.9175 32.113125 -18.835 31.22625 -18.75 30.3125 C-18 27 -18 27 -16.125 24.875 C-12.78991431 20.36282524 -12.19783089 15.45013056 -11 10 C-15.95 13.3 -20.9 16.6 -26 20 C-26.66 19.67 -27.32 19.34 -28 19 C-21.53518314 14.21987058 -14.99155484 9.56705472 -8.375 5 C-7.66408203 4.50717529 -6.95316406 4.01435059 -6.22070312 3.5065918 C-1.11975531 0 -1.11975531 0 0 0 Z " fill="#EC9E0F" transform="translate(261,197)"/>
<path d="M0 0 C5.47910773 2.95697877 10.72327269 6.05113129 15.859375 9.5703125 C18.19483143 11.13012464 20.58867711 12.56045836 23 14 C24.94116104 15.22337679 26.87863495 16.45262231 28.8125 17.6875 C29.78832031 18.31011719 30.76414063 18.93273437 31.76953125 19.57421875 C32.50558594 20.04472656 33.24164063 20.51523438 34 21 C33.83984375 22.765625 33.83984375 22.765625 33 25 C30.56640625 26.921875 30.56640625 26.921875 27.5625 28.75 C26.57378906 29.36359375 25.58507812 29.9771875 24.56640625 30.609375 C22 32 22 32 20 32 C20 32.66 20 33.32 20 34 C17.8046875 35.5859375 17.8046875 35.5859375 14.875 37.375 C11.68490274 39.34161079 8.51387743 41.29707779 5.4375 43.4375 C3 45 3 45 1 45 C1 35.76 1 26.52 1 17 C1.33 17 1.66 17 2 17 C2.33 25.25 2.66 33.5 3 42 C11.56133939 37.71869771 11.56133939 37.71869771 16.1875 29.875 C16.92346048 26.56053052 17.36220102 23.38414681 17 20 C15.57273961 17.86676616 15.57273961 17.86676616 13.625 16 C10.09369476 12.25766058 10.09369476 12.25766058 9 9.25 C7.39622421 5.64150447 4.46545414 4.73272707 1 3 C1 7.29 1 11.58 1 16 C0.67 16 0.34 16 0 16 C0 10.72 0 5.44 0 0 Z " fill="#DDA017" transform="translate(182,196)"/>
<path d="M0 0 C0.66 0.33 1.32 0.66 2 1 C1.01 2.32 0.02 3.64 -1 5 C-0.278125 5.44730469 0.44375 5.89460937 1.1875 6.35546875 C2.115625 6.96003906 3.04375 7.56460938 4 8.1875 C4.928125 8.77917969 5.85625 9.37085938 6.8125 9.98046875 C9 12 9 12 9.3125 14.73828125 C9.1578125 15.85783203 9.1578125 15.85783203 9 17 C8.25234375 16.51789063 7.5046875 16.03578125 6.734375 15.5390625 C5.74953125 14.90742188 4.7646875 14.27578125 3.75 13.625 C2.77546875 12.99851563 1.8009375 12.37203125 0.796875 11.7265625 C-1.43521615 10.34865148 -3.63087422 9.11687358 -6 8 C-5.65120368 4.74456771 -4.97866739 3.98126893 -2.4375 1.75 C-1.633125 1.1725 -0.82875 0.595 0 0 Z " fill="#27B575" transform="translate(231,217)"/>
<path d="M0 0 C0.33 0.66 0.66 1.32 1 2 C1.85851562 2.19916016 1.85851562 2.19916016 2.734375 2.40234375 C5.74281721 3.19595006 7.73724867 4.74406153 10.25 6.5625 C11.14203125 7.20316406 12.0340625 7.84382812 12.953125 8.50390625 C13.62859375 8.99761719 14.3040625 9.49132812 15 10 C14.67 11.32 14.34 12.64 14 14 C13.50371094 13.61328125 13.00742188 13.2265625 12.49609375 12.828125 C8.15116853 9.49729049 3.81370839 6.60742538 -1 4 C-0.67 2.68 -0.34 1.36 0 0 Z " fill="#1BB67A" transform="translate(197,201)"/>
<path d="M0 0 C0.66 0.33 1.32 0.66 2 1 C1.01 2.32 0.02 3.64 -1 5 C2.3 7.31 5.6 9.62 9 12 C5.35832912 12 3.99586304 10.97679204 0.9375 9.0625 C-2.47066703 6.92264491 -2.47066703 6.92264491 -6 5 C-4.02 3.35 -2.04 1.7 0 0 Z " fill="#B8A52B" transform="translate(231,217)"/>
<path d="M0 0 C3.465 1.98 3.465 1.98 7 4 C6.67 5.32 6.34 6.64 6 8 C3.36 6.02 0.72 4.04 -2 2 C-1.34 1.34 -0.68 0.68 0 0 Z " fill="#23B176" transform="translate(205,207)"/>
<path d="M0 0 C2.31 0.66 4.62 1.32 7 2 C7 2.99 7 3.98 7 5 C5.68 5.33 4.36 5.66 3 6 C3 4.68 3 3.36 3 2 C1.02 2.99 1.02 2.99 -1 4 C-0.67 2.68 -0.34 1.36 0 0 Z " fill="#1FAD77" transform="translate(198,231)"/>
</svg>
